<svg width="219" height="15" viewBox="0 0 219 15" fill="none" xmlns="http://www.w3.org/2000/svg">
<path opacity="0.5" d="M6.51027 12.15C5.73527 12.15 5.01027 12.0075 4.33527 11.7225C3.66527 11.4325 3.07527 11.0325 2.56527 10.5225C2.05527 10.0125 1.65527 9.42 1.36527 8.745C1.07527 8.07 0.930273 7.345 0.930273 6.57C0.930273 5.805 1.07527 5.0875 1.36527 4.4175C1.65527 3.7425 2.05527 3.15 2.56527 2.64C3.07527 2.13 3.66527 1.73 4.33527 1.44C5.01027 1.15 5.73527 1.005 6.51027 1.005C7.27527 1.005 7.99277 1.15 8.66277 1.44C9.33777 1.73 9.93027 2.13 10.4403 2.64C10.9553 3.15 11.3553 3.7425 11.6403 4.4175C11.9303 5.0875 12.0753 5.805 12.0753 6.57C12.0753 7.345 11.9303 8.07 11.6403 8.745C11.3553 9.42 10.9553 10.0125 10.4403 10.5225C9.93027 11.0325 9.33777 11.4325 8.66277 11.7225C7.99277 12.0075 7.27527 12.15 6.51027 12.15ZM6.51027 11.2125C7.34527 11.2125 8.10777 11.0225 8.79777 10.6425C9.49277 10.2625 10.0478 9.725 10.4628 9.03C10.8778 8.335 11.0853 7.515 11.0853 6.57C11.0853 5.64 10.8778 4.8275 10.4628 4.1325C10.0478 3.4325 9.49277 2.89 8.79777 2.505C8.10777 2.115 7.34527 1.92 6.51027 1.92C5.65027 1.92 4.87277 2.115 4.17777 2.505C3.48777 2.89 2.94027 3.4325 2.53527 4.1325C2.13027 4.8275 1.92777 5.64 1.92777 6.57C1.92777 7.515 2.13027 8.335 2.53527 9.03C2.94027 9.725 3.48777 10.2625 4.17777 10.6425C4.87277 11.0225 5.65027 11.2125 6.51027 11.2125ZM6.54027 3.405C7.17027 3.405 7.68527 3.575 8.08527 3.915C8.49027 4.255 8.80277 4.6425 9.02277 5.0775L7.99527 5.3175C7.83027 5.0025 7.63277 4.75 7.40277 4.56C7.17777 4.365 6.90777 4.2675 6.59277 4.2675C6.08777 4.2675 5.67277 4.4675 5.34777 4.8675C5.02777 5.2675 4.86777 5.8175 4.86777 6.5175C4.86777 7.2425 5.03027 7.805 5.35527 8.205C5.68527 8.605 6.11027 8.805 6.63027 8.805C7.00527 8.805 7.32777 8.7 7.59777 8.49C7.86777 8.275 8.09027 8 8.26527 7.665L9.04527 7.95C8.91027 8.225 8.72777 8.495 8.49777 8.76C8.27277 9.02 7.99777 9.2375 7.67277 9.4125C7.34777 9.5825 6.97027 9.6675 6.54027 9.6675C5.97527 9.6675 5.47777 9.5375 5.04777 9.2775C4.61777 9.0125 4.28027 8.6475 4.03527 8.1825C3.79027 7.7125 3.66777 7.1675 3.66777 6.5475C3.66777 5.9275 3.79027 5.3825 4.03527 4.9125C4.28527 4.4375 4.62527 4.0675 5.05527 3.8025C5.49027 3.5375 5.98527 3.405 6.54027 3.405ZM17.0868 12V1.155H23.9268L23.9193 2.3775H18.4818V5.9175H23.3793V7.1325H18.4743V10.7475L24.0693 10.7625V12H17.0868ZM27.9116 12.15C27.1566 12.15 26.5416 11.9525 26.0666 11.5575C25.5916 11.1625 25.3541 10.61 25.3541 9.9C25.3541 9.04 25.6541 8.4 26.2541 7.98C26.8541 7.56 27.8166 7.335 29.1416 7.305L30.5291 7.2675V6.66C30.5291 6.185 30.3841 5.81 30.0941 5.535C29.8091 5.255 29.3691 5.115 28.7741 5.115C28.3291 5.12 27.9366 5.2275 27.5966 5.4375C27.2566 5.6425 27.0391 5.975 26.9441 6.435H25.7216C25.7616 5.68 26.0566 5.1025 26.6066 4.7025C27.1566 4.2975 27.9016 4.095 28.8416 4.095C29.8516 4.095 30.6066 4.3075 31.1066 4.7325C31.6116 5.1575 31.8641 5.775 31.8641 6.585V12H30.6791L30.5816 10.545C30.2766 11.15 29.8941 11.57 29.4341 11.805C28.9741 12.035 28.4666 12.15 27.9116 12.15ZM28.3316 11.1525C28.6766 11.1525 29.0166 11.07 29.3516 10.905C29.6916 10.74 29.9716 10.53 30.1916 10.275C30.4116 10.015 30.5241 9.74 30.5291 9.45V8.1225L29.3741 8.145C28.4841 8.16 27.8166 8.2925 27.3716 8.5425C26.9266 8.7875 26.7041 9.195 26.7041 9.765C26.7041 10.205 26.8541 10.5475 27.1541 10.7925C27.4591 11.0325 27.8516 11.1525 28.3316 11.1525ZM36.6197 12.15C36.0747 12.15 35.5722 12.065 35.1122 11.895C34.6522 11.725 34.2672 11.465 33.9572 11.115C33.6522 10.76 33.4622 10.3025 33.3872 9.7425H34.6472C34.7472 10.1975 34.9747 10.54 35.3297 10.77C35.6897 11 36.1172 11.115 36.6122 11.115C37.1322 11.115 37.5522 11.0175 37.8722 10.8225C38.1922 10.6275 38.3522 10.3275 38.3522 9.9225C38.3522 9.3775 38.0097 9.0225 37.3247 8.8575L35.7197 8.46C35.0897 8.31 34.5872 8.075 34.2122 7.755C33.8422 7.435 33.6572 6.9875 33.6572 6.4125C33.6522 5.7325 33.8972 5.1775 34.3922 4.7475C34.8872 4.3125 35.6272 4.095 36.6122 4.095C37.4522 4.095 38.1297 4.285 38.6447 4.665C39.1647 5.045 39.4347 5.5975 39.4547 6.3225H38.2322C38.1772 5.9525 38.0097 5.66 37.7297 5.445C37.4497 5.225 37.0722 5.115 36.5972 5.115C36.1022 5.115 35.6997 5.215 35.3897 5.415C35.0797 5.61 34.9247 5.915 34.9247 6.33C34.9247 6.605 35.0347 6.8225 35.2547 6.9825C35.4747 7.1375 35.7997 7.2675 36.2297 7.3725L37.7822 7.7625C38.2572 7.8875 38.6272 8.065 38.8922 8.295C39.1572 8.525 39.3422 8.7775 39.4472 9.0525C39.5522 9.3275 39.6047 9.5925 39.6047 9.8475C39.6047 10.5625 39.3422 11.125 38.8172 11.535C38.2922 11.945 37.5597 12.15 36.6197 12.15ZM42.0443 14.475C41.5893 14.475 41.2768 14.4425 41.1068 14.3775C40.9368 14.3125 40.8518 14.28 40.8518 14.28V13.38L41.6393 13.395C42.0243 13.41 42.3218 13.3725 42.5318 13.2825C42.7468 13.1925 42.9043 13.08 43.0043 12.945C43.1043 12.81 43.1818 12.6775 43.2368 12.5475L43.5068 11.8125L40.4768 4.245H41.8793L44.1668 10.23L46.4393 4.245H47.7968L44.5268 12.585C44.2268 13.325 43.8718 13.825 43.4618 14.085C43.0518 14.345 42.5793 14.475 42.0443 14.475ZM52.8755 12.15C52.2705 12.15 51.788 12.0475 51.428 11.8425C51.068 11.6375 50.798 11.3975 50.618 11.1225C50.438 10.8475 50.3155 10.61 50.2505 10.41L50.1005 12H49.043V0.855H50.438V5.475C50.523 5.305 50.6705 5.1125 50.8805 4.8975C51.0905 4.6825 51.368 4.495 51.713 4.335C52.063 4.175 52.4855 4.095 52.9805 4.095C53.9505 4.095 54.7205 4.4325 55.2905 5.1075C55.8655 5.7825 56.153 6.7775 56.153 8.0925C56.153 9.3125 55.878 10.295 55.328 11.04C54.783 11.78 53.9655 12.15 52.8755 12.15ZM52.628 11.085C53.253 11.085 53.763 10.8425 54.158 10.3575C54.558 9.8675 54.758 9.09 54.758 8.025C54.758 7.12 54.573 6.42 54.203 5.925C53.838 5.425 53.303 5.175 52.598 5.175C51.828 5.175 51.278 5.425 50.948 5.925C50.618 6.42 50.448 7.12 50.438 8.025C50.438 9.11 50.6055 9.8925 50.9405 10.3725C51.2805 10.8475 51.843 11.085 52.628 11.085ZM59.772 12.15C59.017 12.15 58.402 11.9525 57.927 11.5575C57.452 11.1625 57.2145 10.61 57.2145 9.9C57.2145 9.04 57.5145 8.4 58.1145 7.98C58.7145 7.56 59.677 7.335 61.002 7.305L62.3895 7.2675V6.66C62.3895 6.185 62.2445 5.81 61.9545 5.535C61.6695 5.255 61.2295 5.115 60.6345 5.115C60.1895 5.12 59.797 5.2275 59.457 5.4375C59.117 5.6425 58.8995 5.975 58.8045 6.435H57.582C57.622 5.68 57.917 5.1025 58.467 4.7025C59.017 4.2975 59.762 4.095 60.702 4.095C61.712 4.095 62.467 4.3075 62.967 4.7325C63.472 5.1575 63.7245 5.775 63.7245 6.585V12H62.5395L62.442 10.545C62.137 11.15 61.7545 11.57 61.2945 11.805C60.8345 12.035 60.327 12.15 59.772 12.15ZM60.192 11.1525C60.537 11.1525 60.877 11.07 61.212 10.905C61.552 10.74 61.832 10.53 62.052 10.275C62.272 10.015 62.3845 9.74 62.3895 9.45V8.1225L61.2345 8.145C60.3445 8.16 59.677 8.2925 59.232 8.5425C58.787 8.7875 58.5645 9.195 58.5645 9.765C58.5645 10.205 58.7145 10.5475 59.0145 10.7925C59.3195 11.0325 59.712 11.1525 60.192 11.1525ZM65.8594 12V4.245H67.2019V5.37C67.3919 5.045 67.6894 4.7575 68.0944 4.5075C68.4994 4.2575 69.0119 4.1325 69.6319 4.1325C70.1219 4.1325 70.5719 4.23 70.9819 4.425C71.3969 4.62 71.7269 4.925 71.9719 5.34C72.2219 5.75 72.3469 6.28 72.3469 6.93V12H70.9594V7.065C70.9594 6.46 70.7994 6.0125 70.4794 5.7225C70.1644 5.4275 69.7544 5.28 69.2494 5.28C68.8994 5.28 68.5719 5.3375 68.2669 5.4525C67.9619 5.5625 67.7144 5.7325 67.5244 5.9625C67.3344 6.1875 67.2394 6.4725 67.2394 6.8175V12H65.8594ZM81.0923 12H79.6223L77.1923 8.1075L75.6623 9.69V12H74.2823V0.855H75.6623V8.1225L79.3073 4.245H80.8973L78.0998 7.2L81.0923 12ZM82.1922 12V10.23H83.8422V12H82.1922ZM88.2592 12L92.1817 1.155H93.7492L97.6717 12H96.2542L95.1892 9.03H90.7567L89.6692 12H88.2592ZM91.1092 7.755H94.8217L92.9767 2.5275L91.1092 7.755ZM101.157 12.0975C100.597 12.0975 100.177 12 99.8968 11.805C99.6168 11.605 99.4293 11.3475 99.3343 11.0325C99.2443 10.7125 99.1993 10.37 99.1993 10.005V0.855H100.564V9.87C100.564 10.265 100.639 10.56 100.789 10.755C100.944 10.945 101.159 11.05 101.434 11.07L101.854 11.0775V11.9775C101.604 12.0575 101.372 12.0975 101.157 12.0975ZM105.17 12.0975C104.61 12.0975 104.19 12 103.91 11.805C103.63 11.605 103.443 11.3475 103.348 11.0325C103.258 10.7125 103.213 10.37 103.213 10.005V0.855H104.578V9.87C104.578 10.265 104.653 10.56 104.803 10.755C104.958 10.945 105.173 11.05 105.448 11.07L105.868 11.0775V11.9775C105.618 12.0575 105.385 12.0975 105.17 12.0975ZM118.709 12H117.239L115.259 7.3275H112.341V12H110.954V1.155H115.154C116.329 1.155 117.209 1.4175 117.794 1.9425C118.384 2.4675 118.679 3.1925 118.679 4.1175C118.679 4.7075 118.574 5.1975 118.364 5.5875C118.159 5.9775 117.896 6.2925 117.576 6.5325C117.256 6.7675 116.924 6.95 116.579 7.08L118.709 12ZM114.704 6.18C115.519 6.18 116.149 6.015 116.594 5.685C117.039 5.35 117.261 4.855 117.261 4.2C117.261 3.565 117.061 3.0875 116.661 2.7675C116.266 2.4475 115.724 2.2875 115.034 2.2875H112.341V6.18H114.704ZM122.013 1.1625V2.6025H120.596V1.1625H122.013ZM121.983 4.245V12H120.641V4.245H121.983ZM127.43 14.565C126.215 14.565 125.268 14.3875 124.588 14.0325C123.908 13.6825 123.568 13.18 123.568 12.525C123.568 12.245 123.633 12.0075 123.763 11.8125C123.893 11.6125 124.048 11.4475 124.228 11.3175C124.408 11.1875 124.575 11.085 124.73 11.01C124.885 10.93 124.985 10.8725 125.03 10.8375C124.945 10.7875 124.838 10.725 124.708 10.65C124.583 10.575 124.473 10.475 124.378 10.35C124.283 10.225 124.235 10.0625 124.235 9.8625C124.235 9.6175 124.348 9.395 124.573 9.195C124.803 8.99 125.145 8.835 125.6 8.73C125.145 8.505 124.79 8.2025 124.535 7.8225C124.28 7.4375 124.153 7.0225 124.153 6.5775C124.153 5.8225 124.453 5.225 125.053 4.785C125.653 4.345 126.478 4.125 127.528 4.125C128.033 4.125 128.458 4.185 128.803 4.305C129.148 4.42 129.468 4.585 129.763 4.8C129.873 4.755 130.058 4.6775 130.318 4.5675C130.578 4.4575 130.843 4.3475 131.113 4.2375C131.388 4.1225 131.598 4.0375 131.743 3.9825L131.735 5.265L130.378 5.52C130.548 5.87 130.633 6.2225 130.633 6.5775C130.633 7.2625 130.363 7.8425 129.823 8.3175C129.288 8.7925 128.48 9.03 127.4 9.03C127.34 9.03 127.263 9.03 127.168 9.03C127.078 9.025 127 9.02 126.935 9.015C126.4 9.03 126.033 9.09 125.833 9.195C125.638 9.3 125.54 9.4125 125.54 9.5325C125.54 9.6775 125.653 9.7775 125.878 9.8325C126.103 9.8875 126.485 9.935 127.025 9.975C127.22 9.985 127.46 10 127.745 10.02C128.03 10.035 128.35 10.0525 128.705 10.0725C129.52 10.1225 130.148 10.33 130.588 10.695C131.028 11.06 131.248 11.5525 131.248 12.1725C131.248 12.8775 130.933 13.4525 130.303 13.8975C129.673 14.3425 128.715 14.565 127.43 14.565ZM127.438 8.1375C127.998 8.1375 128.448 8.0075 128.788 7.7475C129.133 7.4875 129.305 7.1025 129.305 6.5925C129.305 6.0725 129.133 5.675 128.788 5.4C128.448 5.12 127.998 4.98 127.438 4.98C126.873 4.98 126.415 5.12 126.065 5.4C125.72 5.675 125.548 6.0725 125.548 6.5925C125.548 7.0825 125.713 7.4625 126.043 7.7325C126.373 8.0025 126.838 8.1375 127.438 8.1375ZM127.678 13.6725C128.393 13.6725 128.94 13.565 129.32 13.35C129.7 13.135 129.89 12.81 129.89 12.375C129.89 12.07 129.773 11.8175 129.538 11.6175C129.308 11.4175 128.955 11.3025 128.48 11.2725L126.305 11.13C126.11 11.12 125.908 11.17 125.698 11.28C125.488 11.385 125.308 11.5325 125.158 11.7225C125.013 11.9125 124.94 12.1275 124.94 12.3675C124.94 12.7825 125.163 13.1025 125.608 13.3275C126.053 13.5575 126.743 13.6725 127.678 13.6725ZM133.242 12V0.855H134.592V5.385C134.787 5.065 135.085 4.78 135.485 4.53C135.885 4.275 136.395 4.1475 137.015 4.1475C137.52 4.1475 137.977 4.2425 138.387 4.4325C138.797 4.6175 139.122 4.8825 139.362 5.2275C139.602 5.5725 139.722 5.9825 139.722 6.4575V12H138.335V6.735C138.335 6.27 138.175 5.9125 137.855 5.6625C137.54 5.4075 137.127 5.28 136.617 5.28C136.267 5.28 135.94 5.3375 135.635 5.4525C135.335 5.5625 135.09 5.7325 134.9 5.9625C134.715 6.1875 134.622 6.475 134.622 6.825V12H133.242ZM145.224 5.2575H143.477V10.08C143.477 10.495 143.542 10.75 143.672 10.845C143.807 10.935 144.057 10.98 144.422 10.98H145.269V11.91C145.169 11.945 145.024 11.975 144.834 12C144.644 12.025 144.407 12.0375 144.122 12.0375C143.317 12.0375 142.774 11.875 142.494 11.55C142.219 11.225 142.082 10.75 142.082 10.125V5.2575H140.822V4.245H142.119L142.457 1.9875H143.477V4.2375H145.224V5.2575ZM149.706 12.15C149.161 12.15 148.658 12.065 148.198 11.895C147.738 11.725 147.353 11.465 147.043 11.115C146.738 10.76 146.548 10.3025 146.473 9.7425H147.733C147.833 10.1975 148.061 10.54 148.416 10.77C148.776 11 149.203 11.115 149.698 11.115C150.218 11.115 150.638 11.0175 150.958 10.8225C151.278 10.6275 151.438 10.3275 151.438 9.9225C151.438 9.3775 151.096 9.0225 150.411 8.8575L148.806 8.46C148.176 8.31 147.673 8.075 147.298 7.755C146.928 7.435 146.743 6.9875 146.743 6.4125C146.738 5.7325 146.983 5.1775 147.478 4.7475C147.973 4.3125 148.713 4.095 149.698 4.095C150.538 4.095 151.216 4.285 151.731 4.665C152.251 5.045 152.521 5.5975 152.541 6.3225H151.318C151.263 5.9525 151.096 5.66 150.816 5.445C150.536 5.225 150.158 5.115 149.683 5.115C149.188 5.115 148.786 5.215 148.476 5.415C148.166 5.61 148.011 5.915 148.011 6.33C148.011 6.605 148.121 6.8225 148.341 6.9825C148.561 7.1375 148.886 7.2675 149.316 7.3725L150.868 7.7625C151.343 7.8875 151.713 8.065 151.978 8.295C152.243 8.525 152.428 8.7775 152.533 9.0525C152.638 9.3275 152.691 9.5925 152.691 9.8475C152.691 10.5625 152.428 11.125 151.903 11.535C151.378 11.945 150.646 12.15 149.706 12.15ZM165.599 12H164.129L162.149 7.3275H159.231V12H157.844V1.155H162.044C163.219 1.155 164.099 1.4175 164.684 1.9425C165.274 2.4675 165.569 3.1925 165.569 4.1175C165.569 4.7075 165.464 5.1975 165.254 5.5875C165.049 5.9775 164.786 6.2925 164.466 6.5325C164.146 6.7675 163.814 6.95 163.469 7.08L165.599 12ZM161.594 6.18C162.409 6.18 163.039 6.015 163.484 5.685C163.929 5.35 164.151 4.855 164.151 4.2C164.151 3.565 163.951 3.0875 163.551 2.7675C163.156 2.4475 162.614 2.2875 161.924 2.2875H159.231V6.18H161.594ZM168.217 8.445C168.217 8.935 168.297 9.38 168.457 9.78C168.622 10.175 168.869 10.49 169.199 10.725C169.534 10.96 169.952 11.0775 170.452 11.0775C170.947 11.0775 171.372 10.9625 171.727 10.7325C172.087 10.5025 172.317 10.17 172.417 9.735H173.729C173.634 10.26 173.424 10.7025 173.099 11.0625C172.774 11.4225 172.382 11.695 171.922 11.88C171.462 12.06 170.982 12.15 170.482 12.15C169.757 12.15 169.119 11.9925 168.569 11.6775C168.019 11.3625 167.589 10.91 167.279 10.32C166.969 9.73 166.814 9.0225 166.814 8.1975C166.814 7.3825 166.954 6.6675 167.234 6.0525C167.514 5.4375 167.919 4.9575 168.449 4.6125C168.984 4.2675 169.627 4.095 170.377 4.095C171.472 4.095 172.312 4.4425 172.897 5.1375C173.482 5.8275 173.774 6.76 173.774 7.935V8.445H168.217ZM168.224 7.5075H172.439C172.439 6.8425 172.269 6.2825 171.929 5.8275C171.589 5.3725 171.069 5.145 170.369 5.145C169.884 5.145 169.482 5.2625 169.162 5.4975C168.842 5.7275 168.604 6.025 168.449 6.39C168.294 6.75 168.219 7.1225 168.224 7.5075ZM178.138 12.15C177.593 12.15 177.091 12.065 176.631 11.895C176.171 11.725 175.786 11.465 175.476 11.115C175.171 10.76 174.981 10.3025 174.906 9.7425H176.166C176.266 10.1975 176.493 10.54 176.848 10.77C177.208 11 177.636 11.115 178.131 11.115C178.651 11.115 179.071 11.0175 179.391 10.8225C179.711 10.6275 179.871 10.3275 179.871 9.9225C179.871 9.3775 179.528 9.0225 178.843 8.8575L177.238 8.46C176.608 8.31 176.106 8.075 175.731 7.755C175.361 7.435 175.176 6.9875 175.176 6.4125C175.171 5.7325 175.416 5.1775 175.911 4.7475C176.406 4.3125 177.146 4.095 178.131 4.095C178.971 4.095 179.648 4.285 180.163 4.665C180.683 5.045 180.953 5.5975 180.973 6.3225H179.751C179.696 5.9525 179.528 5.66 179.248 5.445C178.968 5.225 178.591 5.115 178.116 5.115C177.621 5.115 177.218 5.215 176.908 5.415C176.598 5.61 176.443 5.915 176.443 6.33C176.443 6.605 176.553 6.8225 176.773 6.9825C176.993 7.1375 177.318 7.2675 177.748 7.3725L179.301 7.7625C179.776 7.8875 180.146 8.065 180.411 8.295C180.676 8.525 180.861 8.7775 180.966 9.0525C181.071 9.3275 181.123 9.5925 181.123 9.8475C181.123 10.5625 180.861 11.125 180.336 11.535C179.811 11.945 179.078 12.15 178.138 12.15ZM183.817 8.445C183.817 8.935 183.897 9.38 184.057 9.78C184.222 10.175 184.47 10.49 184.8 10.725C185.135 10.96 185.552 11.0775 186.052 11.0775C186.547 11.0775 186.972 10.9625 187.327 10.7325C187.687 10.5025 187.917 10.17 188.017 9.735H189.33C189.235 10.26 189.025 10.7025 188.7 11.0625C188.375 11.4225 187.982 11.695 187.522 11.88C187.062 12.06 186.582 12.15 186.082 12.15C185.357 12.15 184.72 11.9925 184.17 11.6775C183.62 11.3625 183.19 10.91 182.88 10.32C182.57 9.73 182.415 9.0225 182.415 8.1975C182.415 7.3825 182.555 6.6675 182.835 6.0525C183.115 5.4375 183.52 4.9575 184.05 4.6125C184.585 4.2675 185.227 4.095 185.977 4.095C187.072 4.095 187.912 4.4425 188.497 5.1375C189.082 5.8275 189.375 6.76 189.375 7.935V8.445H183.817ZM183.825 7.5075H188.04C188.04 6.8425 187.87 6.2825 187.53 5.8275C187.19 5.3725 186.67 5.145 185.97 5.145C185.485 5.145 185.082 5.2625 184.762 5.4975C184.442 5.7275 184.205 6.025 184.05 6.39C183.895 6.75 183.82 7.1225 183.825 7.5075ZM191.045 12V4.245H192.365V5.7375C192.56 5.1825 192.867 4.77 193.287 4.5C193.712 4.23 194.17 4.095 194.66 4.095C194.775 4.095 194.885 4.1025 194.99 4.1175C195.1 4.1325 195.187 4.1575 195.252 4.1925V5.535C195.177 5.5 195.08 5.4775 194.96 5.4675C194.845 5.4525 194.747 5.445 194.667 5.445C194.052 5.405 193.525 5.5225 193.085 5.7975C192.645 6.0725 192.425 6.5325 192.425 7.1775V12H191.045ZM203.038 4.245L200.24 12H198.98L196.175 4.245H197.48L199.543 10.26H199.67L201.74 4.245H203.038ZM204.999 8.445C204.999 8.935 205.079 9.38 205.239 9.78C205.404 10.175 205.651 10.49 205.981 10.725C206.316 10.96 206.734 11.0775 207.234 11.0775C207.729 11.0775 208.154 10.9625 208.509 10.7325C208.869 10.5025 209.099 10.17 209.199 9.735H210.511C210.416 10.26 210.206 10.7025 209.881 11.0625C209.556 11.4225 209.164 11.695 208.704 11.88C208.244 12.06 207.764 12.15 207.264 12.15C206.539 12.15 205.901 11.9925 205.351 11.6775C204.801 11.3625 204.371 10.91 204.061 10.32C203.751 9.73 203.596 9.0225 203.596 8.1975C203.596 7.3825 203.736 6.6675 204.016 6.0525C204.296 5.4375 204.701 4.9575 205.231 4.6125C205.766 4.2675 206.409 4.095 207.159 4.095C208.254 4.095 209.094 4.4425 209.679 5.1375C210.264 5.8275 210.556 6.76 210.556 7.935V8.445H204.999ZM205.006 7.5075H209.221C209.221 6.8425 209.051 6.2825 208.711 5.8275C208.371 5.3725 207.851 5.145 207.151 5.145C206.666 5.145 206.264 5.2625 205.944 5.4975C205.624 5.7275 205.386 6.025 205.231 6.39C205.076 6.75 205.001 7.1225 205.006 7.5075ZM215.024 12.15C214.014 12.15 213.214 11.805 212.624 11.115C212.039 10.425 211.747 9.4175 211.747 8.0925C211.747 6.8825 212.012 5.915 212.542 5.19C213.077 4.46 213.869 4.095 214.919 4.095C215.409 4.095 215.827 4.175 216.172 4.335C216.522 4.495 216.802 4.6825 217.012 4.8975C217.227 5.1125 217.377 5.305 217.462 5.475V0.855H218.857V12H217.799L217.649 10.41C217.584 10.61 217.462 10.8475 217.282 11.1225C217.102 11.3975 216.832 11.6375 216.472 11.8425C216.112 12.0475 215.629 12.15 215.024 12.15ZM215.272 11.085C216.057 11.085 216.617 10.8475 216.952 10.3725C217.292 9.8925 217.462 9.11 217.462 8.025C217.452 7.12 217.282 6.42 216.952 5.925C216.622 5.425 216.072 5.175 215.302 5.175C214.667 5.175 214.147 5.4025 213.742 5.8575C213.342 6.3075 213.142 7.03 213.142 8.025C213.142 8.995 213.322 9.7475 213.682 10.2825C214.047 10.8175 214.577 11.085 215.272 11.085Z" fill="white"/>
</svg>
